<mxfile host="app.diagrams.net" agent="Mozilla/5.0 (Windows NT 10.0; Win64; x64) AppleWebKit/537.36 (KHTML, like Gecko) Chrome/140.0.0.0 Safari/537.36" version="28.2.5">
  <diagram name="第 1 页" id="EMJikDxEi6BU1FcVp113">
    <mxGraphModel dx="1226" dy="660" grid="1" gridSize="10" guides="1" tooltips="1" connect="1" arrows="1" fold="1" page="1" pageScale="1" pageWidth="827" pageHeight="1169" math="0" shadow="0">
      <root>
        <mxCell id="0" />
        <mxCell id="1" parent="0" />
        <mxCell id="mHqYLjFiqPOF0pu7nlmP-23" style="edgeStyle=orthogonalEdgeStyle;rounded=0;orthogonalLoop=1;jettySize=auto;html=1;entryX=0.5;entryY=0;entryDx=0;entryDy=0;" edge="1" parent="1" source="mHqYLjFiqPOF0pu7nlmP-1" target="mHqYLjFiqPOF0pu7nlmP-18">
          <mxGeometry relative="1" as="geometry" />
        </mxCell>
        <mxCell id="mHqYLjFiqPOF0pu7nlmP-1" value="Button Run" style="ellipse;whiteSpace=wrap;html=1;" vertex="1" parent="1">
          <mxGeometry x="120" y="220" width="120" height="80" as="geometry" />
        </mxCell>
        <mxCell id="mHqYLjFiqPOF0pu7nlmP-2" value="Button Stop" style="ellipse;whiteSpace=wrap;html=1;" vertex="1" parent="1">
          <mxGeometry x="660" y="60" width="120" height="80" as="geometry" />
        </mxCell>
        <mxCell id="mHqYLjFiqPOF0pu7nlmP-17" value="" style="group" vertex="1" connectable="0" parent="1">
          <mxGeometry x="90" y="30" width="180" height="160" as="geometry" />
        </mxCell>
        <mxCell id="mHqYLjFiqPOF0pu7nlmP-3" value="" style="rounded=1;whiteSpace=wrap;html=1;align=center;" vertex="1" parent="mHqYLjFiqPOF0pu7nlmP-17">
          <mxGeometry width="180" height="160" as="geometry" />
        </mxCell>
        <mxCell id="mHqYLjFiqPOF0pu7nlmP-12" value="&lt;span style=&quot;text-wrap-mode: wrap;&quot;&gt;&lt;b&gt;&lt;font style=&quot;font-size: 14px;&quot;&gt;./JsonFile&lt;/font&gt;&lt;/b&gt;&lt;/span&gt;" style="text;html=1;align=center;verticalAlign=middle;resizable=0;points=[];autosize=1;strokeColor=none;fillColor=none;" vertex="1" parent="mHqYLjFiqPOF0pu7nlmP-17">
          <mxGeometry x="7" y="6" width="90" height="30" as="geometry" />
        </mxCell>
        <mxCell id="mHqYLjFiqPOF0pu7nlmP-13" value="json_Wifi.json" style="rounded=1;whiteSpace=wrap;html=1;" vertex="1" parent="mHqYLjFiqPOF0pu7nlmP-17">
          <mxGeometry x="20.59259259259261" y="36" width="140" height="20" as="geometry" />
        </mxCell>
        <mxCell id="mHqYLjFiqPOF0pu7nlmP-14" value="json_Client.json" style="rounded=1;whiteSpace=wrap;html=1;" vertex="1" parent="mHqYLjFiqPOF0pu7nlmP-17">
          <mxGeometry x="20.59259259259261" y="66" width="140" height="20" as="geometry" />
        </mxCell>
        <mxCell id="mHqYLjFiqPOF0pu7nlmP-15" value="json_Script.json" style="rounded=1;whiteSpace=wrap;html=1;" vertex="1" parent="mHqYLjFiqPOF0pu7nlmP-17">
          <mxGeometry x="20.59259259259261" y="96" width="140" height="20" as="geometry" />
        </mxCell>
        <mxCell id="mHqYLjFiqPOF0pu7nlmP-16" value="json_Schedule.json" style="rounded=1;whiteSpace=wrap;html=1;" vertex="1" parent="mHqYLjFiqPOF0pu7nlmP-17">
          <mxGeometry x="20.59259259259261" y="126" width="140" height="20" as="geometry" />
        </mxCell>
        <mxCell id="mHqYLjFiqPOF0pu7nlmP-24" style="edgeStyle=orthogonalEdgeStyle;rounded=0;orthogonalLoop=1;jettySize=auto;html=1;entryX=0.5;entryY=0;entryDx=0;entryDy=0;" edge="1" parent="1" source="mHqYLjFiqPOF0pu7nlmP-18" target="mHqYLjFiqPOF0pu7nlmP-21">
          <mxGeometry relative="1" as="geometry" />
        </mxCell>
        <mxCell id="mHqYLjFiqPOF0pu7nlmP-18" value="json_SelectedSituation.json" style="rounded=1;whiteSpace=wrap;html=1;" vertex="1" parent="1">
          <mxGeometry x="95" y="350" width="170" height="20" as="geometry" />
        </mxCell>
        <mxCell id="mHqYLjFiqPOF0pu7nlmP-25" style="edgeStyle=orthogonalEdgeStyle;rounded=0;orthogonalLoop=1;jettySize=auto;html=1;entryX=0.5;entryY=0;entryDx=0;entryDy=0;" edge="1" parent="1" source="mHqYLjFiqPOF0pu7nlmP-21" target="mHqYLjFiqPOF0pu7nlmP-26">
          <mxGeometry relative="1" as="geometry">
            <mxPoint x="180" y="530" as="targetPoint" />
          </mxGeometry>
        </mxCell>
        <mxCell id="mHqYLjFiqPOF0pu7nlmP-21" value="Check Clients Connection" style="rhombus;whiteSpace=wrap;html=1;" vertex="1" parent="1">
          <mxGeometry x="95" y="410" width="170" height="100" as="geometry" />
        </mxCell>
        <mxCell id="mHqYLjFiqPOF0pu7nlmP-22" style="edgeStyle=orthogonalEdgeStyle;rounded=0;orthogonalLoop=1;jettySize=auto;html=1;entryX=0.5;entryY=0;entryDx=0;entryDy=0;" edge="1" parent="1" source="mHqYLjFiqPOF0pu7nlmP-3" target="mHqYLjFiqPOF0pu7nlmP-1">
          <mxGeometry relative="1" as="geometry" />
        </mxCell>
        <mxCell id="mHqYLjFiqPOF0pu7nlmP-26" value="&lt;font style=&quot;font-size: 14px;&quot;&gt;&lt;b style=&quot;&quot;&gt;Break&lt;/b&gt;&lt;/font&gt;" style="rounded=1;whiteSpace=wrap;html=1;fillColor=#E6E6E6;fontColor=#333333;strokeColor=#666666;" vertex="1" parent="1">
          <mxGeometry x="117.5" y="555" width="125" height="45" as="geometry" />
        </mxCell>
      </root>
    </mxGraphModel>
  </diagram>
</mxfile>
